HIERARCHY
ROOT Hips
{
	OFFSET 0.000000 0.000000 0.000000
	CHANNELS 6 Xposition Yposition Zposition Zrotation Xrotation Yrotation
	JOINT Spine1
	{
		OFFSET 0.000000 -0.000005 27.769470
		CHANNELS 6 Xposition Yposition Zposition Zrotation Xrotation Yrotation
		JOINT Neck
		{
			OFFSET 0.000000 -0.000004 22.138800
			CHANNELS 6 Xposition Yposition Zposition Zrotation Xrotation Yrotation
			JOINT Head
			{
				OFFSET 0.000000 -1.816362 14.076800
				CHANNELS 6 Xposition Yposition Zposition Zrotation Xrotation Yrotation
				End Site
				{
					OFFSET 0.000000 -0.000003 18.163557
				}
			}
		}
		JOINT LeftShoulder
		{
			OFFSET 3.657670 0.480121 17.875898
			CHANNELS 6 Xposition Yposition Zposition Zrotation Xrotation Yrotation
			JOINT LeftArm
			{
				OFFSET 13.051600 0.000000 0.000000
				CHANNELS 6 Xposition Yposition Zposition Zrotation Xrotation Yrotation
				JOINT LeftForeArm
				{
					OFFSET 25.592100 0.000000 0.000000
					CHANNELS 6 Xposition Yposition Zposition Zrotation Xrotation Yrotation
					JOINT LeftHand
					{
						OFFSET 23.784498 0.000000 0.000000
						CHANNELS 6 Xposition Yposition Zposition Zrotation Xrotation Yrotation
						End Site
						{
							OFFSET 13.622668 0.000000 0.000000
						}
					}
				}
			}
		}
		JOINT RightShoulder
		{
			OFFSET -3.607210 0.480121 17.875898
			CHANNELS 6 Xposition Yposition Zposition Zrotation Xrotation Yrotation
			JOINT RightArm
			{
				OFFSET -13.051600 0.000000 0.000000
				CHANNELS 6 Xposition Yposition Zposition Zrotation Xrotation Yrotation
				JOINT RightForeArm
				{
					OFFSET -25.592100 0.000000 0.000000
					CHANNELS 6 Xposition Yposition Zposition Zrotation Xrotation Yrotation
					JOINT RightHand
					{
						OFFSET -23.784504 0.000000 0.000000
						CHANNELS 6 Xposition Yposition Zposition Zrotation Xrotation Yrotation
						End Site
						{
							OFFSET -13.622668 0.000000 0.000000
						}
					}
				}
			}
		}
	}
	JOINT LeftUpLeg
	{
		OFFSET 9.081800 0.000000 0.000000
		CHANNELS 6 Xposition Yposition Zposition Zrotation Xrotation Yrotation
		JOINT LeftLeg
		{
			OFFSET 0.000000 0.000006 -38.194901
			CHANNELS 6 Xposition Yposition Zposition Zrotation Xrotation Yrotation
			JOINT LeftFoot
			{
				OFFSET 0.000000 0.000007 -40.043003
				CHANNELS 6 Xposition Yposition Zposition Zrotation Xrotation Yrotation
				JOINT LeftToeBase
				{
					OFFSET 0.000000 -13.622698 -5.903168
					CHANNELS 6 Xposition Yposition Zposition Zrotation Xrotation Yrotation
					End Site
					{
						OFFSET 0.000000 -3.632712 0.000000
					}
				}
			}
		}
	}
	JOINT RightUpLeg
	{
		OFFSET -9.081800 0.000000 0.000000
		CHANNELS 6 Xposition Yposition Zposition Zrotation Xrotation Yrotation
		JOINT RightLeg
		{
			OFFSET 0.000000 0.000006 -38.194901
			CHANNELS 6 Xposition Yposition Zposition Zrotation Xrotation Yrotation
			JOINT RightFoot
			{
				OFFSET 0.000000 0.000007 -40.043003
				CHANNELS 6 Xposition Yposition Zposition Zrotation Xrotation Yrotation
				JOINT RightToeBase
				{
					OFFSET 0.000000 -13.622698 -5.903168
					CHANNELS 6 Xposition Yposition Zposition Zrotation Xrotation Yrotation
					End Site
					{
						OFFSET 0.000000 -3.632712 0.000000
					}
				}
			}
		}
	}
}
MOTION
Frames: 7
Frame Time: 0.016667
1.942677 -14.324480 72.225151 -4.637233 13.963985 -1.174991 0.000001 -0.000006 27.769470 -2.881856 -13.231721 -2.822753 0.000001 -0.000002 22.138807 5.294653 7.606904 -3.592870 0.000000 -1.816362 14.076816 6.410673 -1.117806 5.954106 3.657669 0.480122 17.875893 0.403480 -6.542620 -21.624314 13.051600 -0.000005 0.000010 -9.890726 -10.652286 8.268998 25.592104 -0.000001 -0.000002 -9.213684 -15.367477 -6.698742 23.784491 0.000001 -0.000017 22.061513 -12.886841 15.788112 -3.607210 0.480121 17.875893 -6.229802 -1.910979 17.108546 -13.051602 0.000001 -0.000007 23.219124 23.058603 -10.980313 -25.592100 -0.000000 -0.000000 81.401464 41.813694 43.730792 -23.784515 0.000006 -0.000003 3.002496 5.742615 33.037990 9.081800 -0.000002 -0.000006 17.675384 -35.551223 -16.405590 -0.000003 0.000004 -38.194908 9.710048 47.764677 11.735751 0.000001 0.000005 -40.042995 22.050639 -13.382772 5.027699 -0.000000 -13.622698 -5.903168 0.000001 -0.000001 0.000000 -9.081800 -0.000002 -0.000001 14.343056 -24.877103 41.695423 0.000000 0.000009 -38.194908 -21.535786 37.035796 -25.553406 -0.000001 0.000006 -40.043011 -36.339318 -4.879237 -6.010875 0.000001 -13.622699 -5.903168 0.000003 0.000001 -0.000000 
1.938728 -14.332356 72.234756 -4.721323 13.958704 -1.140216 0.000000 -0.000007 27.769480 -2.839671 -13.215173 -2.860774 -0.000001 -0.000005 22.138796 5.307545 7.589051 -3.591661 0.000004 -1.816366 14.076820 6.425912 -1.163389 5.952183 3.657669 0.480120 17.875885 0.406743 -6.551886 -21.620629 13.051604 -0.000003 0.000021 -9.812154 -10.833857 8.251251 25.592100 0.000003 0.000011 -9.157985 -15.410662 -6.667078 23.784504 -0.000008 0.000007 22.059510 -12.933013 15.747387 -3.607214 0.480119 17.875895 -6.200251 -1.905638 17.118510 -13.051602 -0.000001 0.000007 23.188689 23.072797 -10.941967 -25.592096 -0.000008 0.000010 81.340135 41.810624 43.808816 -23.784508 0.000002 0.000014 2.968680 5.690520 33.094176 9.081801 -0.000002 0.000014 17.617339 -35.501995 -16.491468 -0.000001 0.000006 -38.194897 9.725647 47.742309 11.780523 -0.000001 0.000009 -40.043011 22.117493 -13.379470 5.045918 -0.000001 -13.622693 -5.903168 -0.000001 0.000000 -0.000001 -9.081800 -0.000000 0.000012 14.211815 -24.985095 41.607648 -0.000003 0.000007 -38.194901 -21.369575 36.999124 -25.579958 -0.000000 0.000005 -40.042995 -36.269452 -4.829762 -5.965519 -0.000004 -13.622698 -5.903174 -0.000003 0.000001 0.000001 
1.933016 -14.340454 72.243355 -4.793630 13.946120 -1.093921 -0.000000 -0.000006 27.769464 -2.795092 -13.189439 -2.898324 -0.000000 -0.000003 22.138805 5.316898 7.558882 -3.615768 0.000000 -1.816362 14.076822 6.441285 -1.205982 5.962397 3.657672 0.480124 17.875895 0.394939 -6.553210 -21.616290 13.051602 -0.000004 0.000009 -9.732700 -10.925074 8.220715 25.592100 -0.000002 0.000011 -9.131472 -15.421736 -6.671831 23.784510 0.000002 -0.000004 22.055307 -12.941714 15.757499 -3.607211 0.480123 17.875908 -6.185813 -1.883572 17.127898 -13.051604 -0.000002 -0.000001 23.128656 22.956057 -10.896722 -25.592096 -0.000000 0.000012 81.424509 41.786001 43.696019 -23.784521 0.000016 0.000012 2.946281 5.712666 33.119679 9.081800 -0.000001 -0.000005 17.653257 -35.482126 -16.515720 -0.000004 0.000014 -38.194897 9.784674 47.734119 11.699104 0.000001 0.000010 -40.043007 22.107844 -13.385322 5.071582 -0.000003 -13.622693 -5.903167 -0.000002 -0.000001 0.000000 -9.081801 -0.000001 -0.000007 14.003160 -25.146202 41.475398 0.000002 0.000009 -38.194904 -21.167007 36.982794 -25.575256 -0.000000 0.000010 -40.042999 -36.195167 -4.768556 -5.891037 -0.000001 -13.622695 -5.903168 -0.000002 0.000000 0.000000 
1.930424 -14.349402 72.246742 -4.863359 13.927556 -1.071731 -0.000000 -0.000007 27.769461 -2.741774 -13.154842 -2.910456 0.000000 -0.000002 22.138811 5.327950 7.528455 -3.624875 0.000003 -1.816360 14.076828 6.454793 -1.262410 5.949531 3.657671 0.480120 17.875889 0.383214 -6.560925 -21.602206 13.051595 0.000000 0.000010 -9.653644 -10.991207 8.172759 25.592102 -0.000005 0.000003 -9.127275 -15.388956 -6.680580 23.784494 0.000002 -0.000005 22.017677 -12.913207 15.763004 -3.607210 0.480121 17.875889 -6.191078 -1.855114 17.132302 -13.051604 -0.000000 0.000012 23.110570 22.915293 -10.855985 -25.592094 -0.000003 0.000000 81.376670 41.777067 43.736112 -23.784512 0.000005 0.000013 2.912284 5.684508 33.167692 9.081801 -0.000003 -0.000002 17.701771 -35.440387 -16.530688 0.000003 0.000007 -38.194897 9.777687 47.714616 11.699853 0.000001 0.000003 -40.042995 22.126249 -13.397079 5.076780 0.000001 -13.622699 -5.903167 -0.000001 -0.000002 -0.000000 -9.081800 -0.000002 -0.000007 13.803705 -25.307306 41.367399 -0.000004 0.000007 -38.194904 -21.029758 37.012290 -25.522796 0.000000 0.000002 -40.043011 -36.057962 -4.731429 -5.854551 -0.000002 -13.622699 -5.903168 -0.000001 0.000000 -0.000001 
1.929843 -14.356849 72.250725 -4.923541 13.906467 -1.059965 0.000000 -0.000008 27.769474 -2.694825 -13.108186 -2.916415 -0.000001 -0.000005 22.138800 5.334787 7.501579 -3.631594 -0.000001 -1.816365 14.076789 6.462702 -1.328002 5.926871 3.657669 0.480120 17.875896 0.363771 -6.579470 -21.600046 13.051600 -0.000001 0.000012 -9.576329 -11.016819 8.145848 25.592100 -0.000001 -0.000004 -9.144255 -15.377633 -6.710170 23.784498 -0.000004 0.000007 21.974928 -12.911140 15.762514 -3.607211 0.480120 17.875896 -6.170265 -1.865015 17.133844 -13.051607 -0.000001 -0.000001 23.063565 22.888794 -10.826604 -25.592094 -0.000003 -0.000016 81.374013 41.760658 43.731119 -23.784508 -0.000009 0.000008 2.877590 5.660914 33.199927 9.081800 -0.000003 0.000005 17.756759 -35.395635 -16.538617 -0.000001 0.000008 -38.194897 9.775400 47.696925 11.703246 0.000002 0.000004 -40.042995 22.125848 -13.409199 5.087018 0.000004 -13.622699 -5.903168 0.000003 -0.000000 0.000001 -9.081800 -0.000004 0.000001 13.651780 -25.423077 41.304490 -0.000002 0.000009 -38.194901 -20.889136 37.027593 -25.528698 -0.000003 0.000008 -40.042995 -35.980767 -4.690698 -5.821911 0.000002 -13.622698 -5.903168 0.000001 0.000002 0.000000 
1.927573 -14.365519 72.251091 -4.957708 13.885018 -1.059245 0.000001 -0.000005 27.769474 -2.680276 -13.066022 -2.961794 -0.000001 -0.000000 22.138807 5.351145 7.489330 -3.528804 0.000001 -1.816360 14.076816 6.463942 -1.399365 5.841491 3.657671 0.480122 17.875898 0.373775 -6.588666 -21.486814 13.051600 -0.000002 -0.000004 -9.551742 -10.977956 8.043951 25.592102 0.000002 0.000016 -9.165234 -15.346723 -6.729152 23.784498 0.000010 -0.000002 21.941126 -12.894890 15.723261 -3.607212 0.480123 17.875895 -6.176599 -1.871611 17.251873 -13.051604 0.000004 -0.000011 23.087822 22.824551 -10.886702 -25.592098 -0.000007 0.000001 81.368918 41.763984 43.729398 -23.784510 0.000015 0.000010 2.897659 5.676842 33.190153 9.081801 0.000000 0.000006 17.816769 -35.355791 -16.531677 0.000005 0.000000 -38.194897 9.727018 47.677644 11.737311 -0.000000 0.000006 -40.043011 22.134037 -13.417751 5.092008 0.000002 -13.622695 -5.903168 0.000001 0.000001 -0.000000 -9.081800 -0.000001 0.000004 13.518418 -25.493924 41.272122 0.000001 0.000006 -38.194904 -20.872286 37.073427 -25.505253 -0.000000 0.000005 -40.042999 -35.823225 -4.661174 -5.803608 -0.000004 -13.622699 -5.903168 -0.000004 0.000000 -0.000002 
1.927756 -14.376879 72.253593 -4.971430 13.868586 -1.056320 -0.000000 -0.000004 27.769464 -2.654719 -13.038226 -2.935058 -0.000000 -0.000006 22.138802 5.356850 7.470257 -3.597944 -0.000001 -1.816364 14.076792 6.476739 -1.448631 5.840837 3.657669 0.480117 17.875902 0.360903 -6.586004 -21.524595 13.051590 0.000000 -0.000001 -9.513131 -10.860779 8.027292 25.592098 0.000001 -0.000019 -9.222685 -15.358954 -6.772446 23.784496 0.000003 0.000013 21.922220 -12.928526 15.661431 -3.607210 0.480119 17.875908 -6.190884 -1.857137 17.214898 -13.051602 0.000000 0.000002 23.063186 22.832253 -10.848901 -25.592094 0.000003 -0.000009 81.253372 41.773198 43.829782 -23.784517 0.000003 0.000005 2.873856 5.660588 33.213902 9.081800 0.000001 -0.000007 17.867211 -35.324874 -16.526609 0.000001 0.000006 -38.194904 9.717384 47.659834 11.741304 0.000000 0.000007 -40.042992 22.107367 -13.425007 5.081385 0.000003 -13.622693 -5.903161 0.000001 -0.000004 -0.000001 -9.081801 0.000002 -0.000007 13.412625 -25.518866 41.263666 -0.000001 0.000012 -38.194916 -20.799007 37.078689 -25.564274 -0.000002 0.000011 -40.043011 -35.747503 -4.623005 -5.811033 0.000002 -13.622701 -5.903167 -0.000000 -0.000000 0.000001 
